<?xml version="1.0" encoding="UTF-8"?>
<svg id="Layer_2" xmlns="http://www.w3.org/2000/svg" viewBox="0 0 1951.55 744.47">
  <defs>
    <style>
      .cls-1 {
        fill: none;
      }

      .cls-2 {
        fill: #381627;
      }
    </style>
  </defs>
  <g id="Layer_1-2" data-name="Layer_1">
    <g>
      <g>
        <path class="cls-2" d="M415.19,123.56c-24.83,55.03-46.09,112.44-80.06,162.9-27.61,41.32-61.78,78.07-101.91,107.47-34.96,25.03-75.09,45.69-118.2,50.66-20.06,2.19-41.52,1.99-60.59-5.17-18.87-7.15-35.56-20.86-43.51-39.73-5.36-13.11-6.95-27.61-4.97-41.52,1.19-8.54,3.38-16.69,7.15-24.04,5.56-10.33,13.51-17.68,22.65-24.63.6-.4,7.15-4.97,7.95-3.97.79,1.19-5.96,5.76-6.56,6.16-10.13,7.35-15.69,25.23-17.08,37.94-1.19,9.93-.79,20.06,1.59,29.8,5.17,19.67,18.67,36.15,36.55,45.29,19.07,9.93,40.92,12.12,61.98,10.53,41.52-2.98,81.25-20.26,114.23-45.49,39.53-29.8,72.11-69.13,97.74-111.45,28.01-45.89,46.88-96.94,69.33-145.61,8.94-20.06,20.86-38.94,35.16-55.42,11.32-12.91,24.04-24.63,37.74-34.96-1.19.6-2.58.99-3.77,1.39-19.27,6.75-39.73,8.54-59.99,9.54-22.25,1.19-44.5,1.79-66.75,3.77,10.73,6.36,19.67,16.09,23.84,29.4,9.73,30.79-1.39,66.55-15.69,93.96-20.26,38.54-51.45,71.52-87.61,94.96-26.82,18.47-57.21,27.61-88.4,29.6-17.48,1.19-36.75-2.78-49.47-15.89-23.04-24.24-14.1-61.38-.2-90.19-6.16-5.56-10.33-13.31-10.93-22.45-1.39-18.28,8.15-35.76,18.87-49.86,15.69-20.46,36.55-36.55,58.4-49.66,33.57-20.46,73.1-34.17,112.64-31.19,8.14.6,16.29,1.99,24.04,4.77,18.67-3.38,37.94-4.77,57.01-5.76,22.65-1.19,45.49-.99,67.94-4.17,12.32-1.79,24.43-4.37,35.76-9.34,3.38-2.38,6.75-4.17,10.53-5.36,3.38-1.19-.99,2.58-1.59,3.18-10.13,8.74-24.04,13.51-32.78,23.84-21.65,19.87-38.94,43.9-51.05,70.72ZM316.26,60.39c-17.48,2.98-34.17,7.55-50.66,14.3-44.9,17.68-83.24,47.68-110.05,88.2-5.36,8.34-10.53,17.08-15.1,26.22,10.13,9.34,25.23,12.52,38.94,12.52,26.22-.4,51.85-9.34,74.3-22.84.6-.2,5.96-2.98,3.58-.4-2.58,2.98-6.16,5.17-9.34,7.15-10.53,6.36-21.26,11.72-32.58,15.89-21.26,7.95-45.69,13.71-68.14,8.14-4.57-1.19-9.34-2.98-13.31-5.17-2.78,8.14-4.97,16.29-6.16,24.63-1.99,16.29-.4,34.37,10.53,47.48,11.52,13.51,29.4,18.67,46.68,18.47,25.23-.2,49.66-8.54,72.11-19.67,28.8-16.29,52.64-39.93,70.32-67.94,13.31-20.66,23.64-43.31,27.81-67.54,2.78-16.09,2.98-33.57-3.58-48.67-6.75-15.3-19.87-25.63-35.36-30.79ZM133.1,179.38c.4,1.19.99,2.18,1.79,3.18.4-.99.99-1.79,1.59-2.78,26.42-42.91,65.56-76.88,109.86-100.52,17.48-9.34,35.96-17.08,55.03-22.45-12.91-1.99-26.42-1.79-39.13-.2-26.82,3.38-52.44,12.71-75.29,26.82-19.47,11.92-37.15,28.61-48.27,48.67-7.55,13.91-13.31,31.98-5.56,47.28Z"/>
        <path class="cls-2" d="M501.4,280.89c-2.78,2.98-6.36,5.17-9.54,7.15-7.55,4.37-17.48,10.73-26.62,8.54-5.96-1.39-10.53-5.36-11.32-11.92-1.19-8.14,1.79-17.08,5.76-24.43,2.19-4.17,4.57-8.34,6.95-12.52-5.76,5.76-11.72,11.32-17.68,16.49-13.71,11.52-29.6,24.04-46.88,29.8-3.38,1.19-9.34,3.38-12.71.79-2.38-1.79-2.58-4.97-1.59-7.55,2.98-7.75,9.54-14.7,14.7-21.06,8.74-10.73,17.68-21.45,26.22-32.38,8.15-10.33,16.29-21.06,21.65-32.78,3.18-6.56,7.15-17.08.6-23.24-8.34-7.55-26.42-5.36-34.96,0-.4.2-6.36,3.77-5.76,2.38,1.39-2.98,5.56-5.16,8.15-6.75,11.52-7.35,27.02-13.31,40.72-8.74,7.35,2.38,10.33,8.34,8.94,15.89-1.59,9.93-7.35,19.07-12.91,27.22-7.15,10.73-15.1,20.86-23.44,30.59-7.95,10.13-16.09,19.67-23.64,29.6-2.58,3.38-10.93,12.91-4.57,16.89,3.58,2.38,9.34.2,12.91-1.39,6.56-2.78,12.32-6.75,18.08-10.93,18.08-14.1,33.97-31.79,46.48-50.86,1.59-2.98,5.56-5.17,8.15-6.75.4-.2,5.76-3.18,5.76-2.38v.2c-7.15,12.71-14.3,25.63-21.45,38.54-3.38,6.55-6.36,14.7-5.76,22.05.4,4.97,2.78,9.93,7.55,12.12,8.14,3.58,15.5,0,22.45-4.17.6-.2,5.96-2.98,3.77-.4Z"/>
        <path class="cls-2" d="M641.25,174.41c-20.26-5.56-39.93-12.32-59.4-19.47-14.5,17.88-27.22,37.55-38.14,57.81-7.35,13.51-14.5,27.61-19.87,42.31-2.19,6.55-2.98,14.9-.2,21.45,5.96,14.1,24.83,12.52,36.35,5.96.6-.4,5.76-3.18,3.58-.6-2.58,2.98-6.16,5.17-9.54,7.15-11.72,6.75-35.76,15.5-43.7-1.19-3.58-7.35-2.78-16.29-.4-23.84,4.77-12.52,10.73-24.83,16.89-36.55,13.51-25.83,30.39-51.45,49.86-74.3-15.5-5.96-31.19-11.92-46.68-17.68-79.06-29.4-165.68-56.02-249.51-29.6-35.56,12.32-70.12,29-100.32,51.25-2.58,1.99-5.96,4.97-9.14,5.36-1.39.2,3.58-4.37,3.97-4.57,35.56-26.22,74.89-47.28,117.21-61.58,17.48-5.56,35.56-9.14,54.03-10.53,84.03-6.56,163.69,27.22,240.57,56.02,27.61-29.4,60.59-53.64,98.53-66.75h.4c.2-.2.6-.2.79-.4,30.39-9.14,68.93-14.7,97.34,3.77,9.14,5.96,16.89,14.9,19.87,25.83,4.57,17.88-6.16,33.77-18.28,45.49-.99.79-1.79,1.59-2.78,2.38-13.71,11.72-30,21.46-47.28,26.82-30.79,8.94-63.97,3.77-94.16-4.57ZM695.08,172.43c15.1,1.59,30.79,1.59,45.69-1.59,6.95-1.59,13.91-3.77,20.66-6.95,1.59-.79,3.18-1.59,4.77-2.58-.2.2,1.59-.99,1.59-.99.4-.2,1.79-.99,1.19-.79,2.19-1.39,3.58-2.38,5.56-4.17,12.12-11.72,20.46-28.41,13.91-45.29-3.97-9.73-11.32-17.48-20.26-22.85-28.01-16.29-63.57-11.92-93.17-2.98h-.2c-.4.2-.6.2-.79.4-26.62,9.14-49.27,24.63-69.33,44.7-4.57,4.57-8.94,9.34-13.31,14.1,33.57,12.52,67.94,25.03,103.7,29Z"/>
        <path class="cls-2" d="M620.39,281.69c-3.18,2.58-6.75,5.17-10.33,6.95-7.55,3.58-17.68,8.74-26.42,7.15-7.95-1.59-8.74-9.14-6.16-16.09,5.56-13.71,15.1-26.62,21.06-40.13,2.58-4.57,5.56-11.52,4.37-16.49-1.39-5.36-8.34-2.58-11.72-1.19-3.18,1.39.99-2.78,1.59-2.98,2.78-2.58,6.75-4.97,10.53-6.36,2.98-1.39,11.92-5.17,13.71-.2,1.39,4.97-1.39,11.52-3.58,15.89-6.16,14.5-15.89,27.61-21.65,42.51-2.38,6.56-1.79,14.3,6.95,15.3,7.15.79,14.5-2.78,20.66-5.76,2.58-1.19,3.18-.6.99,1.39ZM632.11,184.35c.4-.6-1.59,1.99-1.59,2.19-4.77,4.17-12.12,10.73-19.07,8.54-2.78-.6-5.36-1.79-7.35-3.38-.79-.6,5.96-5.56,6.36-5.96.99-.6,6.56-4.77,7.75-3.77,1.19.79,2.78,1.59,4.37,2.19,1.19.6,2.58,1.19,3.97,1.39-.99,0,4.37.99,5.56-1.19Z"/>
        <path class="cls-2" d="M750.3,280.69c-2.58,2.98-6.16,5.17-9.54,7.15-7.55,4.37-17.68,10.93-26.82,8.74-5.96-1.59-10.73-5.56-11.92-11.92-.99-8.34,1.59-17.28,5.36-24.83,1.59-3.18,3.18-6.36,4.77-9.34-9.34,9.34-19.87,17.88-30.79,25.63-7.95,5.76-16.69,11.12-25.63,15.3-5.36,2.38-12.12,5.36-18.28,4.97-12.71-1.19-5.96-18.08-1.99-25.03,9.73-17.48,25.43-31.59,41.92-42.71,17.08-11.52,37.35-21.65,58.21-18.87,1.59.2-3.58,4.37-3.97,4.77-2.19,1.39-6.95,5.76-9.54,5.36-5.17-.79-10.73-.6-15.89.2-18.87,3.18-34.57,13.71-46.88,28.41-5.36,6.16-10.53,13.31-13.11,21.06-1.59,4.17-3.58,11.12,0,14.7,3.18,3.18,8.94,1.99,12.71.79,6.95-2.18,13.31-5.56,19.07-9.54,18.67-12.91,34.96-30.39,47.88-49.27,1.59-2.98,5.56-5.17,8.14-6.75.4-.4,5.76-3.18,5.76-2.58v.2c-6.36,11.12-12.71,22.25-18.28,33.77-3.18,6.56-5.96,14.7-5.36,22.05.79,5.16,3.18,10.13,7.95,12.32,8.15,3.58,15.5,0,22.85-4.17.6-.2,5.76-2.98,3.38-.4Z"/>
        <path class="cls-2" d="M772.35,287.65c-1.19,2.18-3.97,3.97-6.16,5.36-2.19,1.79-5.56,4.37-7.75,4.37-.2,0-.2-.2-.2-.2l-.2-.4v-.2c9.54-16.69,18.67-33.97,25.23-52.25,2.58-7.15,6.75-15.69,4.77-23.44-1.59-7.55-9.14-5.76-14.7-3.38-3.38,1.39,1.39-2.78,1.79-3.18,2.98-2.58,6.36-4.97,9.73-6.36,5.17-2.19,15.3-5.56,17.48,1.99,2.19,7.35-.99,16.89-3.58,23.84-3.18,8.94-7.15,16.29-11.32,25.03,9.93-10.33,20.66-18.28,31.98-26.82,7.95-5.56,15.89-10.93,24.63-15.69,4.77-2.38,10.53-5.36,15.89-5.76,10.93-.99,4.57,11.32,1.79,16.29-5.76,9.54-11.92,18.08-17.48,27.41-3.58,5.96-6.95,13.71-6.36,20.66.6,5.17,3.18,9.34,8.15,10.93,8.54,2.98,15.89-.6,23.44-4.57,2.78-1.39,3.18-.6.79,1.39-2.98,2.78-6.56,4.97-10.13,6.95-7.15,3.77-16.49,9.14-25.03,7.15-5.96-1.39-10.93-4.77-11.52-11.12-.79-7.55,2.58-15.69,6.36-22.25,5.76-9.54,11.72-17.68,17.28-27.41,2.38-4.17,9.34-16.69-1.19-15.1-12.32,1.79-21.45,10.73-30.79,18.47-16.89,14.1-31.59,29.6-42.91,48.27Z"/>
        <path class="cls-2" d="M998.82,280.69c-2.58,2.98-6.16,5.17-9.54,7.15-7.55,4.37-17.68,10.93-26.82,8.74-5.96-1.59-10.73-5.56-11.92-11.92-.99-8.34,1.59-17.28,5.36-24.83,1.59-3.18,3.18-6.36,4.77-9.34-9.34,9.34-19.87,17.88-30.79,25.63-7.95,5.76-16.69,11.12-25.63,15.3-5.36,2.38-12.12,5.36-18.28,4.97-12.71-1.19-5.96-18.08-1.99-25.03,9.73-17.48,25.43-31.59,41.92-42.71,17.08-11.52,37.35-21.65,58.21-18.87,1.59.2-3.58,4.37-3.97,4.77-2.19,1.39-6.95,5.76-9.54,5.36-5.17-.79-10.73-.6-15.89.2-18.87,3.18-34.57,13.71-46.88,28.41-5.36,6.16-10.53,13.31-13.11,21.06-1.59,4.17-3.58,11.12,0,14.7,3.18,3.18,8.94,1.99,12.71.79,6.95-2.18,13.31-5.56,19.07-9.54,18.67-12.91,34.96-30.39,47.88-49.27,1.59-2.98,5.56-5.17,8.15-6.75.4-.4,5.76-3.18,5.76-2.58v.2c-6.36,11.12-12.71,22.25-18.28,33.77-3.18,6.56-5.96,14.7-5.36,22.05.79,5.16,3.18,10.13,7.95,12.32,8.15,3.58,15.5,0,22.85-4.17.6-.2,5.76-2.98,3.38-.4Z"/>
      </g>
      <path class="cls-2" d="M1416,522.45c-2.58,2.98-6.16,5.17-9.54,7.15-7.55,4.37-17.68,10.93-26.82,8.74-5.96-1.59-10.73-5.56-11.92-11.92-.99-8.34,1.59-17.28,5.36-24.83,1.59-3.18,3.18-6.36,4.77-9.34-9.34,9.34-19.87,17.88-30.79,25.63-7.95,5.76-16.69,11.12-25.63,15.3-5.36,2.38-12.12,5.36-18.28,4.97-12.71-1.19-5.96-18.08-1.99-25.03,9.73-17.48,25.43-31.59,41.92-42.71,17.08-11.52,37.35-21.65,58.21-18.87,1.59.2-3.58,4.37-3.97,4.77-2.18,1.39-6.95,5.76-9.54,5.36-5.17-.79-10.73-.6-15.89.2-18.87,3.18-34.57,13.71-46.88,28.41-5.36,6.16-10.53,13.31-13.11,21.06-1.59,4.17-3.58,11.12,0,14.7,3.18,3.18,8.94,1.99,12.71.79,6.95-2.18,13.31-5.56,19.07-9.54,18.67-12.91,34.96-30.39,47.88-49.27,1.59-2.98,5.56-5.17,8.14-6.75.4-.4,5.76-3.18,5.76-2.58v.2c-6.36,11.12-12.71,22.25-18.28,33.77-3.18,6.56-5.96,14.7-5.36,22.05.79,5.16,3.18,10.13,7.95,12.32,8.14,3.58,15.5,0,22.85-4.17.6-.2,5.76-2.98,3.38-.4Z"/>
      <path class="cls-2" d="M1506.58,474.58c.4-2.78.4-5.96-1.19-8.34-2.38-3.58-6.56-5.17-10.73-5.76-13.51-1.39-28.41,3.38-37.94,12.71-10.13,10.13-23.44,30.79-17.88,45.69,6.56,18.48,37.94,13.11,50.66,4.57.6-.4,6.95-4.97,7.55-3.77.79.99-5.56,5.36-6.16,5.76-14.9,9.93-33.37,18.87-51.45,14.5-7.35-1.79-14.3-5.96-15.69-14.1-.99-7.35,1.19-14.9,4.37-21.45,9.14-19.47,27.02-35.96,45.29-45.69,11.12-5.76,26.22-11.12,38.74-7.35,17.88,5.56,4.37,26.82-4.57,34.76-2.98,2.38-6.36,4.97-10.13,6.36-3.18,1.19,1.39-2.78,1.79-3.18,3.58-2.98,6.56-10.13,7.35-14.7Z"/>
      <path class="cls-2" d="M1749.73,522.45c-2.58,2.98-6.16,5.17-9.54,7.15-7.55,4.37-17.68,10.93-26.82,8.74-5.96-1.59-10.73-5.56-11.92-11.92-.99-8.34,1.59-17.28,5.36-24.83,1.59-3.18,3.18-6.36,4.77-9.34-9.34,9.34-19.87,17.88-30.79,25.63-7.95,5.76-16.69,11.12-25.63,15.3-5.36,2.38-12.12,5.36-18.28,4.97-12.71-1.19-5.96-18.08-1.99-25.03,9.73-17.48,25.43-31.59,41.92-42.71,17.08-11.52,37.35-21.65,58.21-18.87,1.59.2-3.58,4.37-3.97,4.77-2.19,1.39-6.95,5.76-9.54,5.36-5.17-.79-10.73-.6-15.89.2-18.87,3.18-34.57,13.71-46.88,28.41-5.36,6.16-10.53,13.31-13.11,21.06-1.59,4.17-3.58,11.12,0,14.7,3.18,3.18,8.94,1.99,12.71.79,6.95-2.18,13.31-5.56,19.07-9.54,18.67-12.91,34.96-30.39,47.88-49.27,1.59-2.98,5.56-5.17,8.14-6.75.4-.4,5.76-3.18,5.76-2.58v.2c-6.36,11.12-12.71,22.25-18.28,33.77-3.18,6.56-5.96,14.7-5.36,22.05.79,5.16,3.18,10.13,7.95,12.32,8.14,3.58,15.5,0,22.85-4.17.6-.2,5.76-2.98,3.38-.4Z"/>
      <path class="cls-2" d="M815.43,669.59c-31.06,15.78-70.99,24.82-103.86,9.37-13.31-6.24-24.49-16.43-31.22-29.74-6.9-14.3-8.22-30.24-5.92-46.01,5.92-37.8,32.05-70.34,61.63-93.18,23.83-18.24,51.93-33.2,81.84-37.63-4.93-3.29-9.2-7.56-12.49-12.65-6.24-10.02-8.22-21.86-6.57-33.52,3.45-26.13,23.01-48.48,43.38-63.43,16.1-11.5,34.02-21.53,53.74-24.32,16.1-2.47,34.51-.49,47.17,10.35,12,10.52,16.6,26.13,14.46,41.58-2.79,19.06-13.15,35.99-26.13,49.79,10.19-5.09,21.86-8.22,33.03-9.04,10.52-.82,23.34,2.14,28.43,12.49,5.42,11.17,1.15,24.49-5.42,34.18-9.2,12.98-22.19,22.84-35.99,30.07-16.93,10.02-36.65,13.97-56.04,15.61,2.63,1.97,4.93,4.44,6.9,7.4,8.87,13.15,8.05,29.75,3.62,44.21-.49,1.31-.82,2.46-1.31,3.62-2.46,7.07-5.75,13.48-9.7,19.56-18.57,30.9-47.99,55.55-79.54,71.32ZM868.18,626.7c-12.98,10.19-28.27,19.23-44.7,22.02-14.3,2.14-30.4-.82-39.44-13.15-9.37-12.33-9.53-29.09-5.26-43.55,5.59-18.9,17.42-35.5,32.05-48.48,14.3-12.33,32.05-23.99,51.11-26.95,2.63-.33,5.42-.66,8.22-.66h.82c10.68.66,21.36.33,32.05-.49,17.75-1.48,37.47-3.94,53.25-12.98.66-.49,1.31-.82,2.14-1.31,16.1-8.05,35.17-35.5,20.54-52.92-6.57-7.72-16.76-9.7-26.46-8.71-10.19.99-21.36,3.45-30.4,8.38-.66.49-1.31.82-1.97,1.31-.99.49-1.48.66-1.81.49-.49.16-.49-.16.16-.99.33-.49.82-.82,1.31-1.31,15.12-15.12,27.77-36.81,26.62-58.83-1.15-16.27-9.86-30.89-24.81-37.63-16.6-7.72-36.32-6.08-53.25.16-17.75,6.41-32.7,17.75-43.55,33.53-10.52,15.28-18.41,34.67-13.48,53.41,4.44,16.76,17.26,28.76,33.52,33.36.16,0,0,.16-.16.33-.33.99-3.29,3.29-3.45,3.45-1.64,1.15-5.26,4.6-7.56,4.44-26.46-1.97-53.57,5.59-76.42,18.57-32.21,18.57-59.33,50.62-68.86,86.77-4.11,15.78-4.77,33.2.82,48.81,4.93,13.8,14.3,25.64,26.95,33.2,31.06,18.9,72.31,12.49,103.53-2.63,18.41-9.04,35.17-22.02,48.48-37.63ZM875.58,526.95c-3.29-1.15-6.57-2.14-10.02-2.46-1.81-.16-3.62-.16-5.42-.33-.16,0-.33,0-.33-.16-19.06-.16-37.8,11.01-49.96,25.14-12.33,14.46-22.35,33.85-22.02,53.41.33,15.12,7.4,29.91,21.86,35.66,15.94,6.08,35.17,1.81,49.3-7.23,9.2-5.92,16.93-14.13,23.34-23.5,4.77-7.72,8.87-15.94,12-24.49,6.08-20.54,4.11-47.17-18.73-56.04Z"/>
      <rect class="cls-1" width="1951.55" height="744.47"/>
      <path class="cls-2" d="M1387.39,298.77s.8-.65.91-.69-.42-.26-.42-.26l-.65.56.16.38Z"/>
      <polygon class="cls-2" points="1421.44 286.7 1424.42 287.48 1423.41 288.32 1421.44 287.29 1421.44 286.7"/>
      <path class="cls-2" d="M1874.28,301.55c-7.15-37.55-55.03-44.1-86.02-40.53-11.32,1.19-22.45,3.97-33.37,7.35-.2,0-.4.2-.79.2,0,0-.2,0-.2.2-38.14,13.51-72.11,37.55-101.71,64.56-17.08,15.5-32.78,32.38-47.48,50.26-3.18-1.99-6.36-4.17-9.54-6.16-11.72-7.95-23.64-15.89-35.56-23.44-30.39-19.67-61.58-38.54-94.96-52.84-13.52-5.8-27.61-10.92-41.99-14.05-1.42-.49-2.84-.85-4.25-1.09-.04-.01-.06-.02-.1-.03-3.07-.85-11-1.58-14.97-1.91-1.07-.09-3.71-.19-3.71-.19h-1.32c-2.13,0-4.23.08-6.32.24-17.12,1.88-33.39,10.99-33.39,10.99h0c-.35.23-.78.41-1.21.7-7.35,3.97-14.3,8.94-20.46,14.7-15.3,13.71-24.24,32.58-20.46,53.04,1.55,8.56,5.34,16.25,10.58,22.87-2.71,6.62-5.4,13.25-8.18,19.84-18.87,43.7-38.14,87.61-61.78,128.93-21.46,37.55-47.28,74.5-80.46,102.9-36.55,31.19-84.23,44.5-131.71,37.15-21.06-3.58-41.12-12.91-53.64-30.79-10.13-14.9-12.91-33.97-9.73-51.65,3.77-20.26,17.68-39.13,36.16-48.67,21.46-10.53,48.27-12.71,70.32-3.18,11.32,4.57,20.66,13.11,26.82,23.64,7.95,15.3,7.95,32.78,2.38,49.07-4.77,12.91-13.71,26.82-25.63,34.37-2.58,1.59-6.56,3.97-8.14,6.95-.6,1.19,5.36-2.18,5.76-2.38,16.29-10.33,30.79-23.84,39.13-41.52,8.54-17.48,9.73-38.94.4-56.42-11.12-20.26-33.57-29.2-56.22-29.8-24.63-.6-47.68,9.93-67.15,24.04-18.08,13.11-33.37,30.79-37.74,53.04-3.58,17.48-.99,35.76,8.54,50.66,11.92,19.27,33.77,29.2,55.43,32.78,21.26,3.18,43.11,2.78,64.17-2.19,20.26-4.77,39.13-13.71,56.62-24.63,37.55-23.04,67.94-55.82,92.97-91.78,25.43-36.55,45.29-76.48,63.77-116.81,8.67-18.51,16.9-37.24,24.94-56.02,6.48,5.92,14.14,10.63,22.13,13.91,22.65,9.54,48.67,7.55,70.52-2.98,6.95-3.18,13.31-7.55,19.47-12.12.4-.4,5.56-4.97,4.17-4.77-3.18.4-6.75,3.58-9.34,5.36-8.14,6.36-19.67,8.74-29.8,10.13-11.12,1.19-22.45.2-33.18-2.78-14.24-4.03-27.5-12.41-36.62-24.09.36-.84.71-1.69,1.07-2.53,3.38-8.34,6.75-16.49,10.53-24.63,7.35-14.9,15.69-30,26.62-42.91,2.38-2.78,4.97-5.56,7.75-7.75,0-.2.2-.2.2-.4.23-.09.45-.18.68-.27,0,0,4.22-3.65,12.55-2.62,2.75.44,5.48.97,8.2,1.58l5.09,1.22c8.66,2.24,17.17,5.19,25.51,8.44,33.97,13.11,65.75,31.78,96.55,51.25,12.91,7.95,25.43,16.49,38.14,24.83,6.75,4.57,13.31,9.14,20.26,13.31-6.16,8.14-12.32,16.29-18.08,24.63-25.63,36.16-48.87,75.09-66.95,115.62v.2h.2q0,.2.2.2c2.38,0,5.36-2.18,7.55-3.97,2.38-1.39,5.17-3.38,6.16-5.56,10.93-18.67,25.23-35.56,41.52-49.86,8.94-7.75,18.28-16.29,30.59-18.08,10.53-1.59,3.77,11.12,1.39,15.3-5.36,9.54-10.93,19.07-16.29,28.41-3.77,6.56-6.95,14.7-5.96,22.25.6,6.36,5.76,9.93,11.72,11.12,8.54,1.99,17.68-3.18,24.83-7.15,3.58-1.99,7.15-4.17,10.13-6.95,1.99-1.99,1.59-2.98-.99-1.39-7.35,3.97-14.9,7.55-23.24,4.57-4.97-1.59-7.95-5.76-8.54-10.93-.6-6.95,2.58-14.7,6.16-20.46,5.36-9.54,10.93-19.07,16.29-28.61,2.78-5.17,9.14-17.28-1.79-16.29-5.56.4-11.12,3.38-15.89,5.76-8.54,4.57-16.49,9.93-24.24,15.69-11.92,8.74-22.85,18.87-32.78,29.8,15.3-30.2,33.37-59.4,52.64-86.81,3.38-4.97,6.95-9.73,10.53-14.5,45.09,24.83,102.31,29.2,152.17,18.47,32.98-7.15,60.99-19.87,86.02-39.53,17.68-14.3,34.96-34.57,36.95-58.01.79-5.96.6-12.12-.6-18.47ZM1387,295.99c-13.51,9.34-24.04,21.65-33.18,35.36-7.23,11.37-13.14,23.36-18.55,35.59-.17-.34-.37-.67-.53-1.02-8.14-16.49-5.96-35.56,4.17-50.86,10.13-15.5,28.61-20.46,46.49-21.06,1.41,0,2.82.09,4.28.2-.9.58-1.79,1.18-2.68,1.79ZM1861.57,324.19c-.4,19.27-12.71,38.14-26.22,51.45-14.7,12.32-33.37,21.06-50.66,26.62-50.46,16.49-109.46,14.1-158.33-6.95-5.96-2.58-11.52-5.76-17.08-8.94,14.9-19.07,30.99-37.35,48.67-53.83,24.63-23.24,52.25-43.11,84.43-54.23,21.85-7.55,59.6-9.14,74.69-5.36,15.89,3.77,30.99,12.71,38.94,27.22,4.37,7.75,5.96,15.89,5.56,24.04Z"/>
    </g>
  </g>
</svg>